<?xml version="1.0" standalone="no"?>
<!DOCTYPE svg PUBLIC "-//W3C//DTD SVG 20010904//EN"
 "http://www.w3.org/TR/2001/REC-SVG-20010904/DTD/svg10.dtd">
<svg version="1.0" xmlns="http://www.w3.org/2000/svg"
 width="654.000000pt" height="300.000000pt" viewBox="0 0 1050.000000 769.000000"
 preserveAspectRatio="xMidYMid meet">

<g transform="translate(0.000000,769.000000) scale(0.100000,-0.100000)"
fill="#000000" stroke="none">
<path d="M4075 6826 c-59 -15 -103 -37 -128 -64 -17 -19 -18 -19 -60 2 -32 16
-65 22 -140 24 -134 5 -215 -17 -271 -73 -106 -105 -140 -175 -140 -290 0 -82
12 -127 61 -237 l25 -57 -16 -133 c-19 -154 -12 -312 28 -628 13 -102 22 -188
20 -191 -2 -4 -23 -10 -48 -13 -74 -11 -81 -22 -78 -118 2 -82 29 -258 56
-371 l14 -59 -65 -71 c-76 -85 -109 -140 -156 -262 -35 -93 -87 -302 -87 -352
0 -23 -27 -59 -126 -168 -203 -226 -253 -301 -254 -377 0 -27 8 -46 28 -69 24
-27 37 -33 85 -37 54 -4 57 -6 57 -32 0 -51 30 -197 49 -243 11 -24 30 -55 43
-67 33 -32 97 -60 139 -60 47 0 121 48 138 89 8 17 15 31 18 31 2 0 27 -25 56
-55 47 -50 57 -56 102 -61 71 -7 112 16 148 86 29 55 29 55 23 185 -4 72 -9
148 -12 170 -5 39 -4 41 29 53 58 21 70 90 43 242 -16 86 -34 135 -78 203 -29
46 -30 50 -19 90 23 79 44 127 55 127 6 0 20 -19 31 -43 102 -220 263 -537
305 -601 59 -91 146 -186 169 -186 9 0 27 -6 41 -13 50 -26 177 -66 265 -83
70 -14 138 -18 300 -17 204 1 297 10 495 52 123 26 337 125 370 171 10 14 27
70 39 125 21 98 73 310 91 370 5 17 15 52 22 79 6 26 17 50 24 53 7 2 65 -17
130 -43 268 -107 448 -129 595 -73 23 9 35 5 85 -27 48 -31 69 -38 125 -42 56
-4 74 -1 114 19 26 13 63 42 82 65 26 32 43 43 74 48 84 13 176 82 212 158 32
68 19 156 -31 201 l-20 19 24 51 c35 76 33 136 -8 182 -59 68 -165 105 -303
105 l-73 0 -4 163 c-3 151 -5 165 -29 212 -33 66 -77 95 -141 95 -152 0 -232
-154 -199 -380 6 -41 16 -106 21 -145 14 -91 9 -106 -42 -141 -122 -82 -213
-101 -314 -67 -47 16 -124 58 -124 68 0 13 102 210 117 227 21 23 24 99 5 106
-7 2 -72 83 -144 180 -138 184 -255 317 -290 328 -20 6 -20 11 -14 113 19 322
78 664 146 860 43 121 21 147 -195 235 -49 20 -111 48 -136 61 -26 14 -56 25
-68 25 -16 0 -27 13 -45 53 -29 63 -74 108 -141 138 -43 20 -67 23 -175 23
-116 1 -129 -1 -181 -27 -31 -15 -62 -27 -70 -27 -35 0 -291 -163 -314 -199
-15 -26 -22 -6 -28 78 -9 145 -65 210 -205 240 -62 13 -62 13 -127 -3z m150
-142 c35 -14 45 -58 45 -202 l0 -139 -26 -13 c-14 -8 -38 -35 -52 -59 -47 -80
-34 -224 44 -511 22 -82 71 -282 118 -485 8 -33 32 -132 55 -220 22 -87 38
-161 36 -163 -2 -2 -23 -5 -47 -7 -23 -2 -70 -6 -103 -9 -33 -3 -77 -8 -97
-11 -42 -7 -39 -12 -44 80 -3 85 -24 316 -34 390 -5 39 -16 122 -25 185 -8 63
-20 140 -25 170 -12 71 -35 218 -55 350 -9 58 -20 132 -26 165 -18 108 -26
239 -19 303 9 76 30 122 71 156 26 22 40 26 99 26 38 0 76 -3 85 -6z m-433
-39 c26 -3 50 -10 53 -15 3 -4 -2 -43 -11 -87 -14 -65 -15 -93 -6 -167 6 -50
10 -92 8 -94 -3 -2 -13 5 -24 16 -10 10 -37 22 -59 25 -40 7 -40 7 -46 59 -4
29 -15 100 -25 156 -13 72 -16 105 -8 107 6 2 18 6 26 8 8 3 22 4 30 2 8 -2
36 -6 62 -10z m1319 -29 c84 -35 104 -93 95 -268 -7 -136 -40 -270 -68 -276
-8 -1 -52 13 -99 33 -46 20 -109 42 -139 49 l-55 13 -17 134 c-9 74 -17 154
-17 179 -1 60 26 111 69 132 45 22 183 24 231 4z m-1560 -129 c5 -28 12 -75
15 -102 6 -48 5 -51 -20 -63 -46 -21 -53 -15 -66 49 -15 69 -5 131 28 174 21
28 29 18 43 -58z m1129 -26 l0 -49 -62 -4 c-35 -2 -67 -1 -72 3 -8 7 109 99
126 99 4 0 8 -22 8 -49z m729 -85 c11 -8 7 -12 -20 -18 -41 -8 -49 -4 -42 22
6 22 33 20 62 -4z m-715 -128 c3 -13 7 -45 9 -72 4 -43 1 -55 -23 -85 -55 -70
-59 -126 -31 -381 25 -228 31 -319 34 -490 2 -102 1 -218 -1 -257 l-4 -73 -41
0 -42 0 -129 518 c-145 579 -165 667 -166 733 0 88 41 108 240 119 74 4 138 7
142 8 4 1 10 -8 12 -20z m-819 -208 c9 -58 21 -132 26 -165 23 -136 38 -238
58 -385 12 -85 26 -189 32 -230 6 -41 13 -153 16 -247 5 -156 4 -173 -11 -179
-9 -4 -19 -4 -22 -2 -7 8 -21 106 -34 238 -7 63 -16 144 -20 180 -59 454 -69
550 -80 748 -10 184 -4 288 11 192 4 -25 15 -92 24 -150z m1735 184 c0 -3 -11
-44 -24 -92 -63 -230 -94 -473 -136 -1087 -15 -211 -6 -193 -92 -184 -40 5
-87 11 -104 14 l-30 5 3 163 c1 89 5 302 7 472 5 331 10 381 62 542 27 83 70
148 108 163 23 10 206 13 206 4z m-1906 -271 c16 -226 24 -308 61 -588 47
-357 66 -556 54 -569 -4 -5 -42 21 -86 62 -138 124 -130 110 -136 247 -4 66
-13 181 -22 255 -32 280 -35 319 -35 473 0 105 5 183 16 233 25 122 26 124 82
124 l48 0 18 -237z m1299 21 c56 -26 104 -48 106 -50 2 -2 -2 -70 -8 -151 -6
-81 -13 -311 -14 -510 -1 -225 -6 -366 -12 -371 -6 -6 -61 -8 -132 -5 l-122 6
6 214 c8 265 -11 515 -53 741 -18 91 -14 122 18 152 37 34 94 27 211 -26z
m1618 -1051 c17 -20 21 -428 6 -566 l-10 -87 -41 -11 c-109 -27 -161 -85 -161
-178 0 -31 4 -72 8 -92 7 -31 6 -37 -10 -41 -39 -10 -43 -1 -43 116 0 162 10
186 110 260 l80 59 0 77 c0 43 -7 115 -16 161 -24 124 -24 257 0 292 21 31 56
36 77 10z m337 -457 c29 -8 60 -20 68 -26 36 -30 -1 -98 -63 -118 -54 -18
-116 12 -163 78 -29 41 -34 68 -13 73 38 10 120 6 171 -7z m-2424 -37 c67 -53
74 -134 19 -216 -5 -7 -24 -19 -43 -27 -102 -42 -189 96 -129 204 35 62 102
79 153 39z m855 -5 c69 -58 61 -180 -15 -230 -73 -48 -164 19 -164 121 0 110
103 173 179 109z m1410 -203 c40 -29 106 -43 164 -36 49 6 54 5 82 -25 28 -29
29 -32 15 -58 -37 -65 -124 -90 -195 -56 -52 24 -105 114 -105 176 0 23 6 22
39 -1z m-133 -137 c15 -31 46 -77 70 -102 24 -25 44 -49 44 -54 0 -4 -11 -15
-24 -23 -56 -37 -177 42 -204 134 -18 60 6 91 80 100 4 1 19 -24 34 -55z
m-3261 -154 c10 -9 13 -24 9 -54 -6 -38 -2 -49 35 -103 45 -66 66 -117 76
-187 7 -45 7 -46 -20 -46 -64 0 -95 -55 -77 -138 24 -109 35 -190 36 -273 1
-97 -10 -123 -40 -98 -28 23 -80 142 -99 226 -10 43 -25 86 -33 96 -20 22 -54
22 -83 -2 -20 -16 -25 -33 -35 -134 -13 -136 -35 -190 -77 -195 -23 -3 -30 2
-43 33 -22 53 -40 249 -26 281 26 55 4 114 -43 114 -12 0 -43 -6 -68 -14 -79
-24 -66 -1 108 189 77 85 124 139 153 176 7 10 21 41 32 70 17 50 22 55 62 66
49 14 112 10 133 -7z m1804 -97 c0 -16 -8 -48 -17 -73 l-17 -44 -95 -13 c-123
-15 -408 -16 -522 -1 -82 11 -91 14 -104 39 -17 34 -18 50 -1 72 11 15 18 15
82 1 39 -8 140 -17 225 -20 165 -7 274 6 378 46 65 25 72 24 71 -7z"/>
<path d="M6505 5887 c-56 -19 -60 -30 -59 -156 1 -142 26 -263 63 -303 35 -39
96 -39 141 -1 37 31 37 23 2 276 -21 150 -30 169 -87 186 -18 4 -42 4 -60 -2z"/>
<path d="M6974 5699 c-11 -6 -43 -47 -71 -92 -131 -213 -144 -312 -46 -347 60
-20 105 2 135 67 11 27 28 64 37 83 9 19 31 60 50 90 55 89 61 110 46 147 -22
52 -97 78 -151 52z"/>
<path d="M6093 5615 c-32 -14 -63 -59 -63 -92 0 -47 105 -222 180 -300 34 -37
46 -43 80 -43 51 0 98 40 106 90 5 31 -1 44 -53 115 -33 44 -76 110 -97 148
-21 37 -45 71 -54 76 -34 17 -68 19 -99 6z"/>
<path d="M4068 2673 c-26 -7 -33 -48 -20 -128 6 -38 18 -117 27 -175 9 -58 20
-130 25 -160 5 -30 12 -93 16 -140 4 -47 11 -93 16 -102 11 -22 66 -24 94 -4
30 23 25 147 -17 451 -6 39 -14 103 -19 144 -15 112 -40 136 -122 114z"/>
<path d="M5455 2673 c-76 -18 -44 -123 37 -123 47 0 68 16 68 54 0 50 -50 83
-105 69z"/>
<path d="M5693 2598 c-20 -10 -23 -18 -23 -77 0 -36 7 -133 15 -216 8 -82 15
-196 15 -252 0 -56 4 -113 10 -128 9 -24 14 -26 57 -23 43 3 49 6 57 33 6 17
11 32 13 34 1 2 33 -12 70 -31 79 -40 163 -70 247 -89 l59 -13 28 32 c33 37
37 67 12 80 -10 6 -54 19 -99 30 -98 26 -171 56 -201 84 -40 38 -30 63 61 157
96 99 106 115 106 170 0 51 -32 77 -85 68 -62 -10 -106 -54 -191 -192 l-18
-30 -7 40 c-4 22 -10 98 -14 169 -6 106 -10 131 -26 147 -21 21 -52 23 -86 7z"/>
<path d="M2743 2538 c-20 -22 -27 -39 -24 -64 0 -6 45 -47 99 -91 115 -95 255
-224 282 -263 l20 -28 -37 -138 c-56 -213 -55 -218 20 -231 51 -8 46 -19 133
332 24 99 49 196 54 215 31 108 49 196 45 210 -6 18 -56 50 -79 50 -22 0 -33
-26 -65 -150 -15 -61 -31 -113 -35 -117 -3 -4 -39 25 -79 64 -108 106 -267
233 -292 233 -12 0 -31 -10 -42 -22z"/>
<path d="M4975 2487 c-13 -21 -13 -40 1 -178 8 -85 18 -213 21 -286 5 -105 9
-133 21 -138 8 -3 61 -1 116 5 254 28 249 27 262 78 13 47 -9 54 -141 51
l-120 -4 -6 70 c-4 39 -12 140 -19 225 -14 181 -22 200 -80 200 -30 0 -43 -5
-55 -23z"/>
<path d="M4532 2459 c-41 -21 -92 -80 -92 -106 0 -23 -18 -14 -32 15 -17 36
-84 44 -112 13 -18 -19 -17 -24 8 -133 48 -210 95 -471 111 -616 9 -85 19
-102 59 -102 18 0 44 8 56 18 23 18 23 19 10 148 -6 71 -13 140 -14 154 -1 23
3 25 79 35 147 19 237 94 271 225 45 178 -72 350 -250 367 -39 3 -61 -1 -94
-18z m162 -138 c36 -35 66 -108 66 -161 0 -48 -38 -120 -75 -141 -44 -25 -156
-25 -179 -1 -25 29 -28 223 -3 274 36 75 129 89 191 29z"/>
<path d="M5442 2408 c-32 -16 -35 -41 -23 -164 6 -59 11 -155 11 -214 0 -69 4
-110 12 -118 19 -19 82 -15 101 6 21 23 23 145 5 336 -14 160 -34 188 -106
154z"/>
<path d="M3631 2370 c-71 -39 -87 -54 -128 -118 -25 -39 -42 -54 -64 -59 -50
-10 -54 -96 -4 -109 18 -4 31 -20 46 -54 24 -56 57 -89 118 -121 37 -19 60
-23 135 -22 76 0 102 5 160 28 117 48 164 107 118 148 -25 23 -41 21 -82 -6
-117 -78 -276 -80 -324 -5 -18 30 6 39 140 52 193 19 232 47 226 158 -2 34
-53 93 -103 119 -28 14 -58 19 -111 19 -62 0 -81 -5 -127 -30z m177 -96 c25
-18 29 -39 7 -48 -8 -3 -54 -10 -102 -16 -100 -13 -122 -4 -85 33 44 44 138
61 180 31z"/>
<path d="M6426 2374 c-63 -30 -90 -56 -133 -121 -22 -35 -43 -55 -61 -59 -34
-9 -42 -20 -42 -62 0 -28 5 -35 34 -47 23 -10 35 -22 39 -42 8 -42 72 -110
125 -135 73 -33 204 -30 296 7 81 33 136 77 136 109 0 22 -28 56 -45 56 -5 0
-46 -18 -91 -41 -69 -34 -93 -41 -147 -41 -67 -1 -118 18 -141 54 -18 30 6 39
135 52 68 7 141 20 161 28 109 48 88 188 -39 252 -51 26 -166 21 -227 -10z
m175 -103 c38 -31 11 -48 -96 -60 -100 -12 -121 -5 -89 30 44 49 143 65 185
30z"/>
</g>
</svg>
